# xmcd
#
# Track frame offsets:
#	182
#	20555
#	29840
#	42712
#	54845
#	68415
#	82057
#	90077
#	102870
#	114810
#	123572
#	136062
#
# Disc length: 1920 seconds
#
# Revision: 0
# Processed by: cddbd v1.5.1PL0 Copyright (c) Steve Scherf et al.
# Submitted via: dBpowerAMP V4.0
#
DISCID=94077e0c
DTITLE=Sister Rosetta Tharpe - Gospel Train, Volume 2
DYEAR=1989
DGENRE=Gospel
TTITLE0=Take My Hand Precious Lord
TTITLE1=Walk All Over God's Heaven
TTITLE2=I Believe
TTITLE3=If I Can Help Somebody
TTITLE4=Faith
TTITLE5=Bless This House
TTITLE6=If You Believe
TTITLE7=He
TTITLE8=Light A Candle (Say A Prayer)
TTITLE9=I Couldn't Hear Nobody Pray
TTITLE10=Without Him
TTITLE11=Twelve Gates
EXTD=
EXTT0=
EXTT1=
EXTT2=
EXTT3=
EXTT4=
EXTT5=
EXTT6=
EXTT7=
EXTT8=
EXTT9=
EXTT10=
EXTT11=
PLAYORDER=
